<svg xmlns="http://www.w3.org/2000/svg" width="274.773" height="72.59" viewBox="0 0 274.773 72.59">
  <g id="Kenex-white" transform="translate(-0.019)">
    <path id="Path_932" data-name="Path 932" d="M672.549,391.569c32.481-13.413,63.237-29.523,92.731-26.594,1.595.174,4.249-3.06,4.249-3.973-31.988-.391-65.513,17.314-98.459,30.538Z" transform="translate(-494.737 -350.764)" fill="#fff"/>
    <path id="Path_933" data-name="Path 933" d="M653.422,398.51c41.472-10.571,81.638-28.349,113.452-27.131,3.654.464,4.655-.682,5.916-3.147-30.045-.508-78.695,18.851-120.471,30.277Z" transform="translate(-503.176 -347.512)" fill="#fff"/>
    <path id="Path_934" data-name="Path 934" d="M549.524,382.974c3.147,2.567,18.271,13.428,35.671,16.748,25.332,4.814,51.636,5.452,77.273,3.814,55.6-3.48,116.816-28.7,145.006-25.637,4.191.421,4.785,0,6.6-2.6a13.488,13.488,0,0,0-2.523-.333h-2.407c-18.851.377-69.53,15.1-110.378,23.4-29.422,4.785-58.872,4.162-88.366,1.175-22.07-2.219-42.574-6.453-51.521-18.2-1.45-1.813-10.3.914-9.324,1.668Z" transform="translate(-549.46 -344.475)" fill="#fff"/>
    <path id="Path_935" data-name="Path 935" d="M575.454,417.061V396.847l3.35-6.076h.247l18.372,35.758h9.585l-22.157-44.705,15.719-27.885h-9.918l-15.008,27.769h-.159V353.94H566l.073,63.121Zm32.684-34.033V380.9c0-4.7,1.682-6.714,4.713-6.714s4.742,2.016,4.742,6.714v2.132Zm17.981-.58c0-9.019-3.48-15.269-13.268-15.269s-13.282,6.25-13.282,15.269v12.035c0,8.976,3.451,14.762,13.239,14.762,9.541,0,13.2-5.5,13.311-14.167h-8.526v1c0,4.742-1.682,6.714-4.742,6.714s-4.713-1.972-4.713-6.714v-5.96h17.981ZM641.5,408.955V376.793c1.972-1.45,3.654-2.6,5.51-2.6a2.741,2.741,0,0,1,3.06,2.9v31.8H658.6V375.778c0-5.38-2.683-8.7-7.25-8.7-4.959,0-6.815,1.842-10.382,4.858v-3.988h-8.106V408.97Zm32.525-25.927V380.9c0-4.7,1.682-6.714,4.742-6.714s4.756,2.016,4.756,6.714v2.132Zm18.024-.58c0-9.019-3.48-15.269-13.283-15.269s-13.268,6.25-13.268,15.269v12.035c0,8.976,3.48,15.226,13.268,15.226,9.541,0,13.05-5.96,13.283-14.631h-8.526v1c0,4.742-1.682,6.714-4.756,6.714s-4.742-1.972-4.742-6.714v-5.96h18.024Zm3.277,26.507H704.2l4.945-13.877h.131l5,13.877h8.831l-9.295-21.9,8.787-19.112h-8.831L709.193,379.4l-4.35-11.455h-8.874l8.5,19.3Z" transform="translate(-542.024 -353.94)" fill="#fff"/>
  </g>
</svg>
